<mxfile host="app.diagrams.net" agent="Mozilla/5.0 (Windows NT 10.0; Win64; x64) AppleWebKit/537.36 (KHTML, like Gecko) Chrome/138.0.0.0 Safari/537.36" version="28.0.6">
  <diagram name="Page-1" id="k-NbTbkaRDDMrZovh-FK">
    <mxGraphModel dx="96" dy="-518" grid="1" gridSize="10" guides="1" tooltips="1" connect="1" arrows="1" fold="1" page="1" pageScale="1" pageWidth="850" pageHeight="190" background="none" math="0" shadow="0">
      <root>
        <mxCell id="0" />
        <mxCell id="1" parent="0" />
        <mxCell id="oVduiVQcoNZQnrRohAAR-1" value="" style="rounded=1;whiteSpace=wrap;html=1;" parent="1" vertex="1">
          <mxGeometry x="40" y="760" width="760" height="60" as="geometry" />
        </mxCell>
        <mxCell id="oVduiVQcoNZQnrRohAAR-3" value="" style="endArrow=none;html=1;rounded=0;entryX=0.075;entryY=0.07;entryDx=0;entryDy=0;entryPerimeter=0;exitX=0.075;exitY=0.937;exitDx=0;exitDy=0;exitPerimeter=0;" parent="1" edge="1">
          <mxGeometry width="50" height="50" relative="1" as="geometry">
            <mxPoint x="650" y="816" as="sourcePoint" />
            <mxPoint x="650" y="764" as="targetPoint" />
            <Array as="points">
              <mxPoint x="650" y="820" />
              <mxPoint x="650" y="760" />
            </Array>
          </mxGeometry>
        </mxCell>
        <mxCell id="oVduiVQcoNZQnrRohAAR-5" value="" style="shape=curlyBracket;whiteSpace=wrap;html=1;rounded=1;flipH=1;labelPosition=right;verticalLabelPosition=middle;align=left;verticalAlign=middle;rotation=-90;" parent="1" vertex="1">
          <mxGeometry x="334.57" y="437.5" width="20" height="605" as="geometry" />
        </mxCell>
        <mxCell id="oVduiVQcoNZQnrRohAAR-6" value="" style="shape=curlyBracket;whiteSpace=wrap;html=1;rounded=1;flipH=1;labelPosition=right;verticalLabelPosition=middle;align=left;verticalAlign=middle;rotation=-90;" parent="1" vertex="1">
          <mxGeometry x="715.82" y="667.2" width="20" height="145.62" as="geometry" />
        </mxCell>
        <mxCell id="oVduiVQcoNZQnrRohAAR-8" value="&lt;font style=&quot;font-size: 14px;&quot;&gt;1022 bits&lt;/font&gt;" style="text;html=1;align=center;verticalAlign=middle;whiteSpace=wrap;rounded=0;" parent="1" vertex="1">
          <mxGeometry x="690" y="775" width="62.48" height="30" as="geometry" />
        </mxCell>
        <mxCell id="oVduiVQcoNZQnrRohAAR-9" value="&lt;font style=&quot;font-size: 14px;&quot;&gt;7154 bits&lt;/font&gt;" style="text;html=1;align=center;verticalAlign=middle;whiteSpace=wrap;rounded=0;" parent="1" vertex="1">
          <mxGeometry x="310.98999999999995" y="775" width="67.16" height="30" as="geometry" />
        </mxCell>
        <mxCell id="oVduiVQcoNZQnrRohAAR-10" value="&lt;font style=&quot;font-size: 14px;&quot;&gt;Parity Check bits&lt;/font&gt;" style="text;html=1;align=center;verticalAlign=middle;whiteSpace=wrap;rounded=0;" parent="1" vertex="1">
          <mxGeometry x="652.91" y="695" width="145.82" height="30" as="geometry" />
        </mxCell>
        <mxCell id="oVduiVQcoNZQnrRohAAR-11" value="&lt;font style=&quot;font-size: 14px;&quot;&gt;Information bits&lt;/font&gt;" style="text;html=1;align=center;verticalAlign=middle;whiteSpace=wrap;rounded=0;" parent="1" vertex="1">
          <mxGeometry x="286.59" y="690" width="145.82" height="30" as="geometry" />
        </mxCell>
        <mxCell id="oVduiVQcoNZQnrRohAAR-15" value="" style="shape=curlyBracket;whiteSpace=wrap;html=1;rounded=1;flipH=1;labelPosition=right;verticalLabelPosition=middle;align=left;verticalAlign=middle;rotation=90;" parent="1" vertex="1">
          <mxGeometry x="410" y="462" width="20" height="760" as="geometry" />
        </mxCell>
        <mxCell id="oVduiVQcoNZQnrRohAAR-16" value="&lt;font style=&quot;font-size: 14px;&quot;&gt;8176 bits Code-Word&lt;/font&gt;" style="text;html=1;align=center;verticalAlign=middle;whiteSpace=wrap;rounded=0;" parent="1" vertex="1">
          <mxGeometry x="347.09" y="857" width="145.82" height="30" as="geometry" />
        </mxCell>
      </root>
    </mxGraphModel>
  </diagram>
</mxfile>
